<?xml version="1.0" encoding="UTF-8" standalone="no"?>
<!-- Created with Inkscape (http://www.inkscape.org/) -->

<svg
   width="240mm"
   height="37mm"
   viewBox="0 0 240 37"
   version="1.1"
   id="svg1"
   inkscape:export-filename="dynaxiom logo website"
   inkscape:export-xdpi="30.395691"
   inkscape:export-ydpi="30.395691"
   inkscape:version="1.4 (e7c3feb1, 2024-10-09)"
   sodipodi:docname="dynaxiom logo.svg"
   xmlns:inkscape="http://www.inkscape.org/namespaces/inkscape"
   xmlns:sodipodi="http://sodipodi.sourceforge.net/DTD/sodipodi-0.dtd"
   xmlns="http://www.w3.org/2000/svg"
   xmlns:svg="http://www.w3.org/2000/svg">
  <sodipodi:namedview
     id="namedview1"
     pagecolor="#505050"
     bordercolor="#eeeeee"
     borderopacity="1"
     inkscape:showpageshadow="0"
     inkscape:pageopacity="0"
     inkscape:pagecheckerboard="0"
     inkscape:deskcolor="#505050"
     inkscape:document-units="mm"
     inkscape:zoom="0.89887065"
     inkscape:cx="396.05254"
     inkscape:cy="382.1462"
     inkscape:window-width="1840"
     inkscape:window-height="1186"
     inkscape:window-x="1421"
     inkscape:window-y="784"
     inkscape:window-maximized="0"
     inkscape:current-layer="layer1" />
  <defs
     id="defs1" />
  <g
     inkscape:label="Layer 1"
     inkscape:groupmode="layer"
     id="layer1">
    <path
       id="text2"
       style="font-weight:800;font-size:376.61px;font-family:'Mukta Vaani';-inkscape-font-specification:'Mukta Vaani, Ultra-Bold';display:inline;stroke-width:4.11372"
       d="m 183.41789,1.7528087 c -2.15723,0 -4.17165,0.3924196 -6.04338,1.1776464 -1.83998,0.785225 -3.44221,1.9120719 -4.80633,3.3801023 -1.36414,1.4680321 -2.42673,3.2432249 -3.1881,5.3257786 -0.76137,2.048416 -1.14205,4.352778 -1.14205,6.913298 0,2.628802 0.36479,4.984605 1.09443,7.067162 0.76138,2.048416 1.80833,3.789486 3.14074,5.223377 1.33241,1.39975 2.91847,2.475153 4.75847,3.226237 1.83998,0.751087 3.83876,1.126701 5.996,1.126701 2.15725,0 4.15577,-0.375614 5.99577,-1.126701 1.87171,-0.785225 3.47368,-1.894753 4.80606,-3.328644 1.36415,-1.46803 2.42697,-3.226161 3.18836,-5.274577 0.79309,-2.048414 1.18969,-4.353033 1.18969,-6.913555 0,-2.6288 -0.38071,-4.984348 -1.14206,-7.066903 -0.72965,-2.0825554 -1.76071,-3.8409442 -3.09313,-5.2748352 -1.3324,-1.4338911 -2.91872,-2.5263549 -4.75872,-3.2774407 -1.83998,-0.7852268 -3.83852,-1.1776464 -5.99575,-1.1776464 z M 3.2095191,2.3672336 V 34.62989 h 9.5171749 c 2.31586,0 4.504863,-0.341493 6.566928,-1.024296 2.062049,-0.682806 3.854477,-1.707024 5.377235,-3.072635 1.554474,-1.399751 2.775737,-3.140819 3.664014,-5.223377 0.888276,-2.116694 1.332536,-4.608994 1.332536,-7.476776 0,-2.560518 -0.380686,-4.796635 -1.142073,-6.708488 C 27.795693,9.1783213 26.732842,7.5566861 25.336989,6.2593557 23.97285,4.9620254 22.323218,3.9889926 20.38806,3.3403283 18.452883,2.6916622 16.295676,2.3672336 13.916371,2.3672336 Z m 27.1716399,0 10.373785,18.9990254 V 34.62989 h 7.23306 V 21.366259 L 58.599614,2.3672336 H 50.652802 L 44.561816,14.248152 38.518449,2.3672336 Z m 31.692262,0 V 34.62989 h 6.661896 V 24.387691 c 0,-2.048416 -0.01601,-4.062729 -0.04741,-6.042863 -0.03171,-1.980138 -0.127013,-4.045635 -0.285703,-6.19647 h 0.0953 c 0.666196,2.082555 1.475251,4.062743 2.426973,5.94046 0.951722,1.877714 1.998668,3.721408 3.140726,5.530843 L 81.01256,34.62989 h 6.662151 V 2.3672336 H 81.01256 v 9.9347284 c 0,2.048416 0.01601,4.113915 0.04758,6.196473 0.03171,2.048414 0.127013,4.09685 0.285703,6.145266 h -0.0953 C 80.647786,23.004967 79.791047,21.178591 78.680704,19.164316 77.602092,17.1159 76.47594,15.118648 75.302138,13.172654 L 68.735225,2.3672336 Z m 40.400459,0 L 91.576803,34.62989 h 7.566122 l 2.046295,-6.913555 1.57036,-5.632993 1.14207,-3.892121 c 0.38068,-1.331471 0.77726,-2.697181 1.18968,-4.096933 0.41241,-1.39975 0.7772,-2.696956 1.09444,-3.891865 h 0.095 c 0.28552,1.194909 0.61877,2.509434 0.99946,3.943325 0.41242,1.433892 0.80899,2.782284 1.18968,4.045473 l 1.14206,3.892121 1.66535,5.632993 2.04629,6.913555 h 7.66135 L 110.18286,2.3672336 Z m 20.50974,0 9.27934,15.8751894 -9.70764,16.387467 h 8.32749 l 6.13862,-11.317697 6.56692,11.317697 h 8.6132 L 142.1132,18.242423 151.72563,2.3672336 h -8.37512 L 137.49735,13.172654 131.50159,2.3672336 Z m 33.07242,0 V 34.62989 h 7.23305 V 2.3672336 Z m 27.17163,5.2233734 c 1.04689,0 2.01437,0.2220581 2.90264,0.6658831 0.92,0.4438233 1.72905,1.109488 2.42697,1.9971359 0.69795,0.887647 1.23707,2.031296 1.61774,3.431048 0.41241,1.36561 0.6188,2.987246 0.6188,4.86496 0,1.809436 -0.19049,3.396947 -0.57118,4.762559 -0.38068,1.365611 -0.90415,2.492454 -1.57036,3.380102 -0.66622,0.887647 -1.45911,1.553312 -2.37911,1.997135 -0.88827,0.443823 -1.84011,0.665626 -2.85528,0.665626 -1.0469,0 -2.03025,-0.221803 -2.95027,-0.665626 -0.88827,-0.443823 -1.68142,-1.109488 -2.37934,-1.997135 -0.69793,-0.887648 -1.25321,-2.014491 -1.66561,-3.380102 -0.38068,-1.365612 -0.5709,-2.953123 -0.5709,-4.762559 0,-1.809432 0.19022,-3.396945 0.5709,-4.762555 0.38067,-1.365611 0.90417,-2.509264 1.57037,-3.431049 0.66619,-0.9217879 1.44345,-1.6045132 2.33174,-2.0483364 0.92,-0.4779643 1.88772,-0.7170866 2.90289,-0.7170866 z M 10.442579,8.3076936 h 2.617197 c 2.759991,0 4.948977,0.8192205 6.566911,2.4579524 1.617919,1.604591 2.426717,3.960397 2.426717,7.06716 0,2.082556 -0.269428,3.823625 -0.808735,5.223375 -0.539305,1.399752 -1.25325,2.526341 -2.141526,3.379848 -0.888277,0.819366 -1.935223,1.399723 -3.140725,1.741124 -1.173804,0.341404 -2.395067,0.512277 -3.66403,0.512277 h -1.855809 z"
       sodipodi:nodetypes="scscsccsscscscscsccssccsccssccccccccccccccssccscccccscccccccccccccsccccccccccccccccccccccccccccscscssscscscssscscscssccscc" />
    <path
       d="M 205.30752,2.3672336 203.26124,34.62989 h 6.66216 l 0.52328,-10.907825 c 0.0317,-0.887647 0.0635,-1.911867 0.0953,-3.072636 0.0635,-1.194907 0.11116,-2.424123 0.14282,-3.687312 0.0317,-1.297331 0.0475,-2.577476 0.0475,-3.840667 0.0317,-1.297328 0.0317,-2.492166 0,-3.5846537 h 0.14265 c 0.19034,1.1266307 0.41235,2.2873397 0.66613,3.4822507 0.25379,1.194907 0.50756,2.389745 0.76137,3.584652 0.28552,1.16077 0.57109,2.304423 0.85661,3.43105 0.2855,1.092491 0.57109,2.116707 0.85661,3.072634 l 3.4738,11.522507 h 5.42488 l 3.33094,-11.573709 c 0.2855,-0.921787 0.57108,-1.928941 0.8566,-3.021432 0.28552,-1.126627 0.57109,-2.27028 0.85661,-3.43105 0.28552,-1.194907 0.55495,-2.389745 0.80874,-3.584652 0.2855,-1.194911 0.53929,-2.35562 0.76138,-3.4822507 h 0.14283 v 3.3798457 3.738261 c 0.0317,1.263191 0.0635,2.509469 0.0953,3.738516 0.0317,1.19491 0.0791,2.304437 0.14265,3.328646 l 0.52353,10.907825 h 6.75713 l -2.1412,-32.2626564 h -9.04127 l -3.14074,11.3174404 c -0.12681,0.477962 -0.30146,1.143885 -0.52354,1.997392 -0.22205,0.853504 -0.45996,1.79216 -0.71375,2.816369 -0.22209,0.990068 -0.45996,2.031346 -0.71377,3.123834 -0.22205,1.058348 -0.39663,2.048441 -0.52351,2.970229 h -0.23785 c -0.12681,-0.853508 -0.30148,-1.775353 -0.52355,-2.765419 -0.19033,-0.99007 -0.41233,-1.962846 -0.66612,-2.918775 -0.22208,-0.990066 -0.45998,-1.928976 -0.71375,-2.816625 -0.2221,-0.921785 -0.44408,-1.7242 -0.66616,-2.407005 L 214.34888,2.3672336 Z"
       style="font-weight:800;font-size:376.61px;font-family:'Mukta Vaani';-inkscape-font-specification:'Mukta Vaani, Ultra-Bold';display:inline;fill:#393939;fill-opacity:1;stroke-width:4.11372"
       id="path1" />
  </g>
</svg>
